{"title":"37.2.S02E01-E02","uid":5340189,"size":379796480,"categoryP":"video","categoryS":"tv_shows","magnet":"?xt=urn:btih:3c4e28d0af8786c7b8973782067b925ff4b04ad8&amp;dn=37.2.S02E01-E02&amp;tr=udp%3A%2F%2Ftracker.openbittorrent.com%3A80&amp;tr=udp%3A%2F%2Fopen.demonii.com%3A1337&amp;tr=udp%3A%2F%2Ftracker.coppersurfer.tk%3A6969&amp;tr=udp%3A%2F%2Fexodus.desync.com%3A6969","seeders":0,"leechers":1,"uploader":"SA_TV","files":1,"time":1265452790,"description":"Arabic Audio.\nNo subs.\n\n      Format : AVI\n      Format/Info : Audio Video Interleave\n      File size : 362 MiB\n      Duration : 56mn 41s\n      Overall bit rate : 893 Kbps\n   Video\n      Format : MPEG-4 Visual\n      Format settings, BVOP : Yes\n      Format settings, QPel : No\n      Format settings, GMC : No warppoints\n      Format settings, Matrix : Default\n      Muxing mode : Packed bitstream\n      Codec ID : DX50\n      Codec ID/Hint : DivX 5\n      Duration : 56mn 41s\n      Bit rate : 780 Kbps\n      Width : 640 pixels\n      Height : 480 pixels\n      Display aspect ratio : 4/3\n      Frame rate : 25.000 fps\n      Resolution : 24 bits\n      Colorimetry : 4:2:0\n      Scan type : Progressive\n      Bits/(Pixel*Frame) : 0.102\n      Stream size : 316 MiB (87%)\n      Writing library : DivX 6.8.3 (UTC 2008-06-07)\n   Audio\n      Format : AC-3\n      Format/Info : Audio Coding 3\n      Codec ID : 2000\n      Duration : 56mn 41s\n      Bit rate mode : Constant\n      Bit rate : 32.0 Kbps\n      Channel(s) : 1 channel\n      Channel positions : C\n      Sampling rate : 32.0 KHz\n      Stream size : 13.0 MiB (4%)\n      Alignment : Aligned on interleaves\n      Interleave, duration : 1001 ms (25.04 video frames)","torrent":{"xt":"urn:btih:3c4e28d0af8786c7b8973782067b925ff4b04ad8","amp;dn":"37.2.S02E01-E02","amp;tr":["udp%3A%2F%2Ftracker.openbittorrent.com%3A80","udp%3A%2F%2Fopen.demonii.com%3A1337","udp%3A%2F%2Ftracker.coppersurfer.tk%3A6969","udp%3A%2F%2Fexodus.desync.com%3A6969"],"infoHash":"3c4e28d0af8786c7b8973782067b925ff4b04ad8","infoHashBuffer":{"type":"Buffer","data":[60,78,40,208,175,135,134,199,184,151,55,130,6,123,146,95,244,176,74,216]},"announce":[],"urlList":[]}}